<svg id="Layer_1" data-name="Layer 1" xmlns="http://www.w3.org/2000/svg" viewBox="0 0 471.346 110.93134"><defs><style>.cls-1{fill:#231f20;}</style></defs><path class="cls-1" d="M108.16118,41.48176h11.09334L74.41936,149.331H59.32247L14.48731,41.48176H25.58065L66.872,141.628Z" transform="translate(-14.48731 -39.94073)"/><path class="cls-1" d="M105.29548,112.81641c0-21.57027,14.17541-38.05566,36.36209-38.05566,22.1846,0,36.36,16.48539,36.36,38.05566s-14.32794,38.05566-36.36,38.05566S105.29548,134.38668,105.29548,112.81641Zm62.24517,0c0-17.1018-10.63156-29.11977-25.88308-29.11977-15.2536,0-25.88516,12.018-25.88516,29.11977,0,17.25538,10.63156,29.11976,25.88516,29.11976C156.90909,141.93617,167.54065,130.07179,167.54065,112.81641Z" transform="translate(-14.48731 -39.94073)"/><path class="cls-1" d="M183.54111,112.81641c0-21.57027,14.17541-38.05566,36.36209-38.05566,22.1846,0,36.36,16.48539,36.36,38.05566s-14.328,38.05566-36.36,38.05566S183.54111,134.38668,183.54111,112.81641Zm62.24517,0c0-17.1018-10.63156-29.11977-25.88308-29.11977-15.2536,0-25.88516,12.018-25.88516,29.11977,0,17.25538,10.63156,29.11976,25.88516,29.11976C235.15472,141.93617,245.78628,130.07179,245.78628,112.81641Z" transform="translate(-14.48731 -39.94073)"/><path class="cls-1" d="M263.25061,93.249c-4.3128-5.70026-6.62382-11.0923-6.62382-18.64179,0-20.64566,15.099-34.66644,36.82179-34.66644,22.03206,0,34.97464,13.40437,34.97464,30.35259,0,13.40332-6.31666,23.57205-16.94822,28.96514-9.08948,4.62205-16.17718,9.2441-16.17718,20.79923v3.38923H285.4373v-3.38923c0-15.40718,7.54949-21.72385,18.48821-26.80873,10.93872-5.08384,14.6372-12.17155,14.6372-22.18565,0-13.40437-10.47693-22.18668-25.11413-22.18668-13.86616,0-26.96127,7.39591-26.96127,25.11412a24.59994,24.59994,0,0,0,4.46742,14.328Zm20.49208,42.83234h13.24974V149.331H283.74269Z" transform="translate(-14.48731 -39.94073)"/><path class="cls-1" d="M397.69879,76.30178V149.331h-9.86052V135.92667c-4.77667,8.01232-13.5569,14.9454-25.26666,14.9454-15.87,0-25.88516-9.70693-25.88516-27.57873V76.30178H346.547v44.83411c0,14.02079,6.47129,20.80028,18.79746,20.80028,11.70975,0,22.49384-9.86051,22.49384-26.19232V76.30178Z" transform="translate(-14.48731 -39.94073)"/><path class="cls-1" d="M411.73,48.56842h11.40051v12.788H411.73Zm10.62947,27.73336V149.331H412.499V76.30178Z" transform="translate(-14.48731 -39.94073)"/><path class="cls-1" d="M444.23483,129.14822V84.31306H429.75226V76.30178h14.48257V54.57792h9.86052V76.30178h24.49771v8.01128H454.09535V129.61c0,8.1659,4.46743,12.32616,10.93872,12.32616,6.31666,0,10.01514-3.08206,12.019-10.32334l8.78022,2.311c-2.92743,11.09334-9.86051,16.94822-20.79923,16.94822C452.24611,150.87207,444.23483,143.63079,444.23483,129.14822Z" transform="translate(-14.48731 -39.94073)"/></svg>